<svg id="Capa_1" data-name="Capa 1" xmlns="http://www.w3.org/2000/svg" xmlns:xlink="http://www.w3.org/1999/xlink" viewBox="0 0 12 11"><defs><style>.cls-1{fill:none;}.cls-2{clip-path:url(#clip-path);}.cls-3{isolation:isolate;}.cls-4{clip-path:url(#clip-path-2);}.cls-5{clip-path:url(#clip-path-3);}.cls-6{fill:#fff;}</style><clipPath id="clip-path"><path class="cls-1" d="M3.32,5.16a.51.51,0,0,0-.72,0,.52.52,0,0,0,0,.72l1.84,2a.64.64,0,0,0,.93,0l.19-.18L6,7.18,7.53,5.7l0,0c.86-.85,1.5-1.49,1.86-1.86a.51.51,0,0,0,0-.72.52.52,0,0,0-.72,0L6.84,5l0,0L5.31,6.46l-.41.41Z"/></clipPath><clipPath id="clip-path-2"><rect class="cls-1" x="-3.54" y="-2.5" width="19" height="16"/></clipPath><clipPath id="clip-path-3"><rect class="cls-1" x="2.46" y="2.5" width="8" height="6"/></clipPath></defs><title>Tilde ok</title><g class="cls-2"><g class="cls-3"><g class="cls-4"><g class="cls-5"><rect class="cls-6" x="-2.56" y="-2.04" width="17.12" height="15.08"/></g></g></g></g></svg>