<svg id="Capa_1" data-name="Capa 1" xmlns="http://www.w3.org/2000/svg" viewBox="0 0 998.82 79.25"><path d="M165.54,142V65.49h6.8V142Z" transform="translate(-69.93 -64.04)"/><path d="M240.89,143.29q-19,0-28.59-9.81t-9.53-29.76q0-12.93,4.35-21.73a29.29,29.29,0,0,1,13-13.32q8.63-4.52,21.34-4.52a54.29,54.29,0,0,1,14.32,1.73A30.35,30.35,0,0,1,266.47,71a22.3,22.3,0,0,1,6.75,8.53,28.72,28.72,0,0,1,2.34,12h-7.8a21.39,21.39,0,0,0-2-9.75,16.69,16.69,0,0,0-5.52-6.35A23.65,23.65,0,0,0,251.87,72,49.11,49.11,0,0,0,241.45,71a43.09,43.09,0,0,0-12.65,1.73,23.79,23.79,0,0,0-9.64,5.57A24.79,24.79,0,0,0,213,88.12a43.87,43.87,0,0,0-2.12,14.49V105q0,11.37,3.57,18.33a21.55,21.55,0,0,0,10.2,10.09,36.72,36.72,0,0,0,15.77,3.12q10,0,16-2.73a17,17,0,0,0,8.64-8.42c1.78-3.78,2.68-8.58,2.68-14.37v-1.9H238.89v-6.69h36.67V142h-6.24l-1-10.47a20.73,20.73,0,0,1-7.08,6.85,32.39,32.39,0,0,1-9.64,3.79A48.93,48.93,0,0,1,240.89,143.29Z" transform="translate(-69.93 -64.04)"/><path d="M312.24,142V65.49h9V142Z" transform="translate(-69.93 -64.04)"/><path d="M376.92,142V74.41H350.51V65.49h63.2v8.92H387.18V142Z" transform="translate(-69.93 -64.04)"/><path d="M427.83,142l30.1-76.46h14.93L503.07,142H490.59l-7.14-18.28H446.67l-7,18.28Zm22.63-28.09h29.2l-8.91-23.29c-.3-.67-.66-1.58-1.06-2.73l-1.4-3.9c-.52-1.45-1-2.92-1.5-4.4s-1-2.86-1.39-4.13h-.67l-1.79,5.13c-.66,1.93-1.32,3.81-1.95,5.63s-1.17,3.29-1.61,4.4Z" transform="translate(-69.93 -64.04)"/><path d="M529.72,142V65.49h12.81v65.32h38.23V142Z" transform="translate(-69.93 -64.04)"/><path d="M608.42,142V65.49h14.26V96.7h36V65.49H673V142H658.68V109h-36v33Z" transform="translate(-69.93 -64.04)"/><path d="M740.94,143.29q-12,0-20.79-4.29a29.71,29.71,0,0,1-13.43-13.15Q702,117,702,103.72q0-13.48,4.68-22.23a29.84,29.84,0,0,1,13.43-13q8.76-4.27,20.79-4.29,12.25,0,21,4.29a29.91,29.91,0,0,1,13.37,13Q780,90.23,780,103.72q0,13.27-4.68,22.13A29.77,29.77,0,0,1,761.9,139Q753.2,143.29,740.94,143.29Zm0-13a27.37,27.37,0,0,0,9.81-1.62,18.23,18.23,0,0,0,7.13-4.79,21.24,21.24,0,0,0,4.41-7.8,34.91,34.91,0,0,0,1.5-10.76v-3a35.47,35.47,0,0,0-1.5-10.81,21.18,21.18,0,0,0-4.41-7.86,18.45,18.45,0,0,0-7.13-4.79,30.51,30.51,0,0,0-19.62,0,18,18,0,0,0-7.08,4.79,21,21,0,0,0-4.29,7.86,36.83,36.83,0,0,0-1.45,10.81v3A36.25,36.25,0,0,0,719.76,116a21,21,0,0,0,4.29,7.8,17.84,17.84,0,0,0,7.08,4.79A27.37,27.37,0,0,0,740.94,130.25Z" transform="translate(-69.93 -64.04)"/><path d="M842.81,143.29q-10.69,0-18.33-3.34a24.89,24.89,0,0,1-11.71-10.15q-4.07-6.8-4.06-16.94V65.38h17.61v47q0,7.9,4.23,12.31t12.15,4.4q8,0,12.32-4.4t4.29-12.31v-47H877v47.48q0,10.14-4.12,16.94A25.15,25.15,0,0,1,861.15,140Q853.51,143.3,842.81,143.29Z" transform="translate(-69.93 -64.04)"/><path d="M940.79,143.29a69,69,0,0,1-13.6-1.28,35.11,35.11,0,0,1-11.2-4.18,21.43,21.43,0,0,1-7.64-7.64,22.57,22.57,0,0,1-2.78-11.64v-1a2.72,2.72,0,0,1,.11-.89H925a7.46,7.46,0,0,1-.06.84,6.85,6.85,0,0,0,0,.83,8.56,8.56,0,0,0,1.84,5.74,10.16,10.16,0,0,0,5.18,3.12,28.42,28.42,0,0,0,7.8.95,43.34,43.34,0,0,0,4.57-.22,18.1,18.1,0,0,0,3.79-.78,12.4,12.4,0,0,0,3-1.4,5.32,5.32,0,0,0,1.9-2,5.78,5.78,0,0,0,.61-2.73,5.35,5.35,0,0,0-2-4.24A15.81,15.81,0,0,0,946.3,114c-2.19-.75-4.66-1.45-7.41-2.12s-5.61-1.37-8.58-2.12a62.81,62.81,0,0,1-8.58-2.79,30.78,30.78,0,0,1-7.42-4.23,18.82,18.82,0,0,1-5.23-6.41,20.39,20.39,0,0,1-2-9.31,19.63,19.63,0,0,1,9.64-17.61,33.29,33.29,0,0,1,10.42-4.07A59.56,59.56,0,0,1,939.78,64a54.29,54.29,0,0,1,12.32,1.34,32.34,32.34,0,0,1,10.2,4.18A19.87,19.87,0,0,1,971.88,87v1.34H952.71v-.78a7.54,7.54,0,0,0-1.39-4.51,9.47,9.47,0,0,0-4.18-3.12,17.9,17.9,0,0,0-6.91-1.17,26.75,26.75,0,0,0-7,.78,9.91,9.91,0,0,0-4.34,2.23,4.59,4.59,0,0,0-1.51,3.45,4.91,4.91,0,0,0,2,4,17.1,17.1,0,0,0,5.3,2.68c2.23.74,4.71,1.43,7.46,2.06s5.59,1.3,8.53,2a64,64,0,0,1,8.53,2.67,31.73,31.73,0,0,1,7.47,4.12,18.65,18.65,0,0,1,5.29,6.19,18.84,18.84,0,0,1,1.95,8.92q0,9.14-4.29,14.71a24.35,24.35,0,0,1-11.82,8.14A52.46,52.46,0,0,1,940.79,143.29Z" transform="translate(-69.93 -64.04)"/><path d="M1002.53,142V65.27H1068V82.88h-42.24v11.7h37.79v16.94h-37.79v12.82h43V142Z" transform="translate(-69.93 -64.04)"/><path d="M105,141.87H69.93V65.5H105a30.28,30.28,0,0,1,30.25,30.25v15.87A30.28,30.28,0,0,1,105,141.87ZM76,135.8h29a24.21,24.21,0,0,0,24.19-24.18V95.75A24.22,24.22,0,0,0,105,71.56H76Z" transform="translate(-69.93 -64.04)"/></svg>