<svg id="Capa_1" data-name="Capa 1" xmlns="http://www.w3.org/2000/svg" viewBox="0 0 142.41 27"><defs><style>.cls-1{fill:#1d1d1d;}</style></defs><path class="cls-1" d="M2.39,21V1.19h9.36a6.23,6.23,0,0,1,2.5.48A5.28,5.28,0,0,1,16.12,3a5.51,5.51,0,0,1,1.22,2,7.51,7.51,0,0,1,.43,2.56,7.59,7.59,0,0,1-.43,2.58,5.55,5.55,0,0,1-1.22,2,5.48,5.48,0,0,1-1.87,1.31,6.59,6.59,0,0,1-2.5.45h-5V21ZM6.7,10.1h4.54a2.16,2.16,0,0,0,1.51-.49,1.9,1.9,0,0,0,.56-1.47V6.89a1.8,1.8,0,0,0-.56-1.44,2.13,2.13,0,0,0-1.51-.52H6.7Z" transform="translate(-2.39)"/><path class="cls-1" d="M24.38,21a4.26,4.26,0,0,1-3.18-1,4.26,4.26,0,0,1-1-3V0h4.2V17.73h1.87V21Z" transform="translate(-2.39)"/><path class="cls-1" d="M39.23,21a2.71,2.71,0,0,1-1.9-.71,3.3,3.3,0,0,1-.93-1.9h-.17a3.5,3.5,0,0,1-1.51,2.21,5.24,5.24,0,0,1-2.86.74,4.66,4.66,0,0,1-3.43-1.19A4.25,4.25,0,0,1,27.24,17a3.89,3.89,0,0,1,1.7-3.49,8.23,8.23,0,0,1,4.68-1.16H36V11.4a2.47,2.47,0,0,0-.56-1.7,2.4,2.4,0,0,0-1.9-.65,3.29,3.29,0,0,0-2,.54,5.23,5.23,0,0,0-1.22,1.22L27.8,8.59a6.5,6.5,0,0,1,2.27-2.07,7.82,7.82,0,0,1,3.75-.76,7,7,0,0,1,4.76,1.39,5.09,5.09,0,0,1,1.59,4v6.53h1.39V21Zm-5.81-2.58A3.29,3.29,0,0,0,35.21,18,1.57,1.57,0,0,0,36,16.48V14.72h-2c-1.64,0-2.47.56-2.47,1.67v.43A1.45,1.45,0,0,0,32,18,2.5,2.5,0,0,0,33.42,18.41Z" transform="translate(-2.39)"/><path class="cls-1" d="M52.66,6.1h3.92L50.85,23.28a5.2,5.2,0,0,1-1.62,2.56,4.59,4.59,0,0,1-2.95.82H43.67V23.4h2.81L47,21.75,41.77,6.1h4.17l2.19,7,1.07,4.31h.17l1.11-4.31Z" transform="translate(-2.39)"/><path class="cls-1" d="M71.32,22.07a4.76,4.76,0,0,1-.43,2.09,3.55,3.55,0,0,1-1.33,1.54,6.73,6.73,0,0,1-2.5,1,17.63,17.63,0,0,1-3.8.34A18.2,18.2,0,0,1,60,26.74a7,7,0,0,1-2.18-.68A2.94,2.94,0,0,1,56.57,25a2.77,2.77,0,0,1-.37-1.45,2.62,2.62,0,0,1,.74-2,3.56,3.56,0,0,1,2-.88v-.31a2.47,2.47,0,0,1-1.62-.91,2.77,2.77,0,0,1-.53-1.7,2.19,2.19,0,0,1,.22-1,2.61,2.61,0,0,1,.63-.76,2.92,2.92,0,0,1,.9-.54,5.67,5.67,0,0,1,1-.31V15a4.42,4.42,0,0,1-2-1.7,5,5,0,0,1-.65-2.55A4.56,4.56,0,0,1,58.5,7.15a7.13,7.13,0,0,1,4.82-1.39A9.74,9.74,0,0,1,65.84,6V5.47a2.19,2.19,0,0,1,.57-1.7,2.41,2.41,0,0,1,1.67-.54h2.36V6.35H67.15v.17a4.31,4.31,0,0,1,1.93,1.73,5,5,0,0,1,.62,2.53,4.51,4.51,0,0,1-1.59,3.6,7.23,7.23,0,0,1-4.79,1.33,10.39,10.39,0,0,1-2.64-.31A1.35,1.35,0,0,0,60,16.59a1,1,0,0,0,.4.85,2.55,2.55,0,0,0,1.39.29h4.31a5.66,5.66,0,0,1,3.94,1.13A4.12,4.12,0,0,1,71.32,22.07Zm-3.94.56a1.11,1.11,0,0,0-.52-1,3.35,3.35,0,0,0-1.78-.34H60a1.89,1.89,0,0,0-.42.62,2.35,2.35,0,0,0-.12.71,1.24,1.24,0,0,0,.71,1.19,5.23,5.23,0,0,0,2.41.4h1.71a5.23,5.23,0,0,0,2.41-.4A1.24,1.24,0,0,0,67.38,22.63ZM63.32,13a2.77,2.77,0,0,0,1.84-.51,1.91,1.91,0,0,0,.63-1.53v-.34a1.82,1.82,0,0,0-.63-1.5,2.66,2.66,0,0,0-1.84-.54,2.78,2.78,0,0,0-1.87.54,1.86,1.86,0,0,0-.6,1.5v.34a2,2,0,0,0,.6,1.53A2.9,2.9,0,0,0,63.32,13Z" transform="translate(-2.39)"/><path class="cls-1" d="M72.62,21V6.1h4.19V9.33H77a4.51,4.51,0,0,1,.4-1.19,3.76,3.76,0,0,1,.74-1.05,3.55,3.55,0,0,1,1.13-.71,3.85,3.85,0,0,1,1.54-.28h.73V10h-1a6.1,6.1,0,0,0-2.75.48,1.88,1.88,0,0,0-.88,1.79V21Z" transform="translate(-2.39)"/><path class="cls-1" d="M89.42,21.33a7.64,7.64,0,0,1-3-.54,6.1,6.1,0,0,1-2.19-1.56,7.27,7.27,0,0,1-1.36-2.47,10.19,10.19,0,0,1-.48-3.23,10.19,10.19,0,0,1,.48-3.23,6.94,6.94,0,0,1,1.36-2.44A6.1,6.1,0,0,1,86.47,6.3a7.64,7.64,0,0,1,3-.54,7.45,7.45,0,0,1,2.92.54,5.66,5.66,0,0,1,2.18,1.56,6.55,6.55,0,0,1,1.39,2.44,10.19,10.19,0,0,1,.48,3.23,10.19,10.19,0,0,1-.48,3.23,6.85,6.85,0,0,1-1.39,2.47,5.66,5.66,0,0,1-2.18,1.56A7.45,7.45,0,0,1,89.42,21.33Zm0-3.32a2.46,2.46,0,0,0,1.93-.77A3.18,3.18,0,0,0,92,15.06V12a3.21,3.21,0,0,0-.68-2.19,2.83,2.83,0,0,0-3.86,0A3.21,3.21,0,0,0,86.81,12v3a3.18,3.18,0,0,0,.68,2.18A2.45,2.45,0,0,0,89.42,18Z" transform="translate(-2.39)"/><path class="cls-1" d="M107.61,18.49h-.14a4.55,4.55,0,0,1-.54,1.08,3.51,3.51,0,0,1-.82.91,4,4,0,0,1-1.22.62,5.12,5.12,0,0,1-1.59.23,4.17,4.17,0,0,1-3.49-1.51,7.12,7.12,0,0,1-1.16-4.36V6.1h4.2v9a3.84,3.84,0,0,0,.48,2.1,1.81,1.81,0,0,0,1.64.73,3.25,3.25,0,0,0,1-.14,2.88,2.88,0,0,0,.85-.39,2.3,2.3,0,0,0,.59-.69,1.83,1.83,0,0,0,.23-.93V6.1h4.2V21h-4.2Z" transform="translate(-2.39)"/><path class="cls-1" d="M115.15,21V6.1h4.19V8.62h.17a4.66,4.66,0,0,1,1.39-2,4.76,4.76,0,0,1,6.21.68,7,7,0,0,1,1.2,4.37V21h-4.2V12a3.83,3.83,0,0,0-.46-2.13A1.77,1.77,0,0,0,122,9.16a3.77,3.77,0,0,0-1,.14,2.47,2.47,0,0,0-.87.4,2.07,2.07,0,0,0-.6.71,1.86,1.86,0,0,0-.23.93V21Z" transform="translate(-2.39)"/><path class="cls-1" d="M140.61,18.49h-.15a3.93,3.93,0,0,1-.53,1.14,4.09,4.09,0,0,1-.91.9,3.75,3.75,0,0,1-1.19.57,4.18,4.18,0,0,1-1.36.23,5,5,0,0,1-4.29-2,9.91,9.91,0,0,1-1.44-5.81,9.8,9.8,0,0,1,1.44-5.79,5,5,0,0,1,4.29-2,4.26,4.26,0,0,1,2.55.79,3.45,3.45,0,0,1,1.44,2h.15V0h4.19V21h-4.19Zm-2.76-.57a3.18,3.18,0,0,0,2-.56,1.93,1.93,0,0,0,.8-1.62v-4.4a1.82,1.82,0,0,0-.8-1.58,3.07,3.07,0,0,0-2-.6,2.59,2.59,0,0,0-2,.85,3.17,3.17,0,0,0-.77,2.24v2.58a3.27,3.27,0,0,0,.77,2.27A2.63,2.63,0,0,0,137.85,17.92Z" transform="translate(-2.39)"/></svg>